# xmcd CD database file
# Copyright (C) 1995-1998 Ti Kan
#
# Track frame offsets:
#	150
#	9945
#	26048
#	36263
#	47525
#	58760
#	69800
#	79490
#	95243
#	106083
#
# Disc length: 1599 seconds
#
# Revision: 1
# Processed by: cddbd v1.4b41PL3 Copyright (c) Steve Scherf et al.
# Submitted via: CDex 1.30
#
DISCID=7a063d0a
DTITLE=Jimmy Witherspoon and Groove Holmes - Cry The Blues
DYEAR=1950
DGENRE=Blues
TTITLE0=Tell Him I Was Flyin' (Part One)
TTITLE1=In Blues
TTITLE2=Losers Blues
TTITLE3=Please Send Me Someone To Love
TTITLE4=Life's Highway
TTITLE5=Cry The Blues
TTITLE6=Out Blues
TTITLE7=Since I Fell For You
TTITLE8=Everything
TTITLE9=Tell Him I Was Flyin' (Part Two)
EXTD=YEAR: 1950  ID3G:   0
EXTT0=
EXTT1=
EXTT2=
EXTT3=
EXTT4=
EXTT5=
EXTT6=
EXTT7=
EXTT8=
EXTT9=
PLAYORDER=
